<svg xmlns="http://www.w3.org/2000/svg" width="19.114" height="19.114" viewBox="0 0 19.114 19.114">
  <g >
    <g>
      <path d="M18.189,17.265H13.873V16.87a5.246,5.246,0,0,0,4.316-5.154V8.941H12.64V7.707h.617a.926.926,0,0,0,.925-.925V6.443a1.54,1.54,0,0,0,.925-.595v.01H16.34a.926.926,0,0,0,.925-.925V2.775a.926.926,0,0,0-.925-.925h-1.3A3.393,3.393,0,0,0,12.024,0H2.466A2.469,2.469,0,0,0,0,2.466V4.86A1.419,1.419,0,0,0,.788,6.134a.8.8,0,0,1,.445.721V14.6A3.876,3.876,0,0,1,.09,17.355l-.09.09v1.669H18.189a.925.925,0,1,0,0-1.85Zm-1.85-14.8h0a.309.309,0,0,1,.308.308V4.933a.309.309,0,0,1-.308.308h-.956a1.541,1.541,0,0,0,.031-.308V3.391a3.38,3.38,0,0,0-.131-.925Zm1.233,7.091v.617H8.016v.617h9.557v.925a4.63,4.63,0,0,1-4.624,4.624H11.1a4.63,4.63,0,0,1-4.624-4.624V10.79H7.4v-.617H6.474V9.557Zm-4.316,7.4v.308H10.79v-.308h2.466ZM10.482,7.707H11.1V8.941H5.858v2.775a5.246,5.246,0,0,0,4.316,5.154v.359a5.556,5.556,0,0,1-4.933-5.513V7.4a.926.926,0,0,1,.925-.925H9.557v.308A.926.926,0,0,0,10.482,7.707Zm1.233,1.233V7.707h.308V8.941Zm1.85-2.158h0a.309.309,0,0,1-.308.308H10.482a.309.309,0,0,1-.308-.308V6.474h3.391v.308Zm-12.5-1.2A.806.806,0,0,1,.617,4.86V4.624h.617V4.008H.617V2.466A1.852,1.852,0,0,1,2.466.617h9.557A2.778,2.778,0,0,1,14.8,3.391v.617H1.85v.617H14.8v.308a.926.926,0,0,1-.925.925H6.166a1.544,1.544,0,0,0-1.51,1.233H4.212a1.079,1.079,0,0,0-1.95,0H1.85V6.855A1.417,1.417,0,0,0,1.065,5.583ZM18.189,18.5H.617v-.8A4.488,4.488,0,0,0,1.85,14.6V7.707h.884l.05-.247a.462.462,0,0,1,.906,0l.05.247h.884v4.008a6.173,6.173,0,0,0,6.166,6.166h7.4a.308.308,0,1,1,0,.617Z" fill="#4e5d6a"/>
      <path d="M167.591,25.659h.617a.925.925,0,0,0,0-1.85h-.617a.925.925,0,1,0,0,1.85Zm0-1.233h.617a.308.308,0,0,1,0,.617h-.617a.308.308,0,1,1,0-.617Z" transform="translate(-155.876 -22.268)" fill="#4e5d6a"/>
    </g>
  </g>
</svg>
